<svg width="32" height="32" viewBox="0 0 32 32" fill="none" xmlns="http://www.w3.org/2000/svg">
  <!-- Simplified Goat Icon for Favicon -->
  <g transform="translate(4, 4)">
    <!-- Body -->
    <ellipse cx="12" cy="15" rx="8" ry="5" fill="#7A8B5E"/>
    
    <!-- Head -->
    <circle cx="7" cy="11" r="4.5" fill="#7A8B5E"/>
    
    <!-- Ears -->
    <ellipse cx="4.5" cy="8" rx="1.5" ry="2.5" fill="#7A8B5E" transform="rotate(-20 4.5 8)"/>
    <ellipse cx="9.5" cy="8" rx="1.5" ry="2.5" fill="#7A8B5E" transform="rotate(20 9.5 8)"/>
    
    <!-- Horns -->
    <path d="M 4 7.5 Q 2.5 5 3 3.5" stroke="#7A8B5E" stroke-width="1.2" fill="none" stroke-linecap="round"/>
    <path d="M 10 7.5 Q 11.5 5 11 3.5" stroke="#7A8B5E" stroke-width="1.2" fill="none" stroke-linecap="round"/>
    
    <!-- Eye -->
    <circle cx="6.5" cy="10.5" r="0.8" fill="#FFFFFF"/>
    <circle cx="6.5" cy="10.5" r="0.4" fill="#2D3319"/>
    
    <!-- Nose -->
    <circle cx="4.5" cy="12.5" r="0.7" fill="#6B7A4E"/>
    
    <!-- Legs (simplified) -->
    <rect x="9" y="18" width="1.5" height="5" rx="0.7" fill="#7A8B5E"/>
    <rect x="11.5" y="18" width="1.5" height="5" rx="0.7" fill="#7A8B5E"/>
    <rect x="15" y="18" width="1.5" height="5" rx="0.7" fill="#7A8B5E"/>
    <rect x="17.5" y="18" width="1.5" height="5" rx="0.7" fill="#7A8B5E"/>
    
    <!-- Tail -->
    <path d="M 20 14 Q 22 13 23 16" stroke="#7A8B5E" stroke-width="1.5" fill="none" stroke-linecap="round"/>
  </g>
</svg>